<?xml version="1.0" encoding="utf-8"?>
<!-- Generator: Adobe Illustrator 25.4.1, SVG Export Plug-In . SVG Version: 6.00 Build 0)  -->
<svg version="1.0" id="katman_1" xmlns="http://www.w3.org/2000/svg" xmlns:xlink="http://www.w3.org/1999/xlink" x="0px" y="0px"
	 viewBox="0 0 1024 768" style="enable-background:new 0 0 1024 768;" xml:space="preserve">
<style type="text/css">
	.st0{fill:#FFDA00;}
	.st1{fill:#67B3FF;}
	.st2{fill:#EB5A68;}
	.st3{fill:#47A1FF;}
	.st4{fill:#D5465F;}
	.st5{fill-rule:evenodd;clip-rule:evenodd;fill:#29303A;}
</style>
<path class="st0" d="M165.7,416.6c-8.5-8.6-13.3-20.3-13.2-32.4c0-12.1,4.8-23.8,13.4-32.3c7.4-6.6,8.1-18,1.5-25.4
	s-18-8.1-25.4-1.5c-0.5,0.5-1,0.9-1.4,1.4c-32,31.8-32.1,83.5-0.4,115.5c6.6,7.4,18,8,25.4,1.4c7.4-6.6,8-18,1.4-25.4
	C166.7,417.5,166.2,417,165.7,416.6z"/>
<path class="st1" d="M166,351.9c17.9-17.8,46.9-17.7,64.7,0.2c6.6,7.5,18,8.2,25.4,1.6c7.5-6.6,8.2-18,1.6-25.4
	c-0.5-0.5-1-1.1-1.5-1.5c-31.6-32-83.1-32.3-115.1-0.7c-0.1,0.1-0.2,0.2-0.3,0.3c-7.5,6.6-8.2,17.9-1.6,25.4
	c6.6,7.5,17.9,8.2,25.4,1.6C165,352.9,165.5,352.4,166,351.9z"/>
<path class="st2" d="M230.5,416.8c-8.6,8.6-20.3,13.3-32.4,13.3c-12.1,0-23.8-4.8-32.3-13.5c-6.6-7.4-18-8.1-25.4-1.5
	c-7.4,6.6-8.1,18-1.5,25.4c0.5,0.5,0.9,1,1.4,1.4c31.7,32,83.3,32.3,115.3,0.6c0.1-0.1,0.1-0.1,0.2-0.2c7.1-7,7.1-18.4,0.1-25.5
	C249,409.9,237.6,409.8,230.5,416.8z"/>
<path class="st3" d="M166,351.9c-7,7-18.4,7-25.5,0s-7-18.4,0-25.5c7-7,18.4-7,25.5,0c0,0,0.1,0.1,0.1,0.1
	C173,333.6,173,344.9,166,351.9z"/>
<path class="st4" d="M165.6,441.9c-7,7-18.4,7-25.5,0c-7-7-7-18.4,0-25.5c7-7,18.4-7,25.5,0c0,0,0.1,0.1,0.1,0.1
	C172.7,423.6,172.6,435,165.6,441.9z"/>
<path class="st5" d="M336.2,401.8c5.2-3.9,5.9-1.7,10.3,2.6c2.2,2.2,8.2,6,4.3,9.2c-8.2,6.7-15.6,9.7-26,9.7
	c-23.6-0.1-40.3-17.8-39-41.2c0.6-10.5,4.7-20.4,12.9-27.2c7.5-6.3,16.8-9.1,26.6-8.9c4.8,0,9.6,0.9,14,2.8c3,1.1,5.8,2.6,8.4,4.5
	c5.2,4,2.8,6.3-1.3,10.4c-0.9,0.9-1.8,1.9-2.6,2.8c-2.1,2.1-3.5,3.6-6.2,1.6c-5.3-3.7-12-5.6-18.3-4c-20.4,5.2-19.5,41.5,5.5,41.6
	C328.9,405.7,332.9,404.4,336.2,401.8L336.2,401.8z M903.3,423.8c-3.4,0-6.2-2.7-6.2-6.2c0,0,0,0,0-0.1l0.3-80.4
	c0-3.4,2.7-6.2,6.2-6.2c0,0,0,0,0.1,0h6.7c3.4,0,6.2,2.8,6.2,6.2c0,0,0,0,0,0.1l-0.3,80.5c0,3.4-2.7,6.2-6.2,6.2c0,0,0,0-0.1,0
	L903.3,423.8z M868.3,414.5c-7.3,6.8-14.2,10.4-24.4,10.4c-20.7-0.1-30.7-17.3-30.7-36.5l0.1-32.7c0-3.4,2.8-6.2,6.2-6.2
	c0,0,0,0,0.1,0h6.7c3.4,0,6.2,2.7,6.2,6.2c0,0,0,0,0,0.1l-0.1,32.7c0,10.7,5.8,19.1,17.1,19.1s18.2-9.5,18.3-20v-11.7
	c-0.1-0.5-0.1-0.9-0.1-1.4l0.1-18.6c0-3.4,2.7-6.2,6.2-6.2c0,0,0,0,0.1,0h6.6c3.4,0,6.2,2.7,6.2,6.2c0,0,0,0,0,0.1l-0.2,61.8
	c0,3.4-2.8,6.1-6.2,6.1h-5.7c-3.3-0.1-6-2.8-6.1-6.1L868.3,414.5z M788.7,349.6h12.9c3.4,0,6.2,2.9,6.1,6.3c0,0,0,0,0,0.1v4.3
	c0,3.4-2.8,6.2-6.2,6.2h-12.9l-0.2,50.8c0,3.4-2.7,6.2-6.2,6.2c0,0,0,0-0.1,0h-6.7c-3.4,0-6.2-2.8-6.2-6.2c0,0,0,0,0,0l0.2-70.3
	c0-15.3,8.8-27.4,24.4-28.8c0.5,0,0.8-0.1,1.3-0.1c0.9-0.1,1.8-0.1,2.8,0h6c3.4,0,6.2,2.9,6.1,6.3c0,0,0,0,0,0v3.9
	c0,3.4-2.8,6.2-6.2,6.2H799c-7.4,0-10.5,5.6-10.6,12.6L788.7,349.6z M742.4,349.4h14.2c3.4,0,6.1,2.8,6.1,6.2v4.3
	c0,3.4-2.8,6.1-6.2,6.1h-14.2l-0.1,31.1c0,6,2.9,9.5,8.9,9.5h2.9c3.4,0,6.1,2.8,6.1,6.2v4.3c0,3.4-2.8,6.1-6.2,6.1h-5.4
	c-1,0-2,0-3-0.1c-15.3-1-22.1-10.9-22.1-25.9c0.1-20.2,0.1-40.2,0.2-60.4c0-3.4,2.8-6.1,6.2-6.1c0,0,0,0,0,0h6.6
	c3.4,0,6.1,2.8,6.1,6.2L742.4,349.4z M537.4,348.6h14.2c3.4,0,6.1,2.8,6.1,6.2v4.3c0,3.4-2.8,6.1-6.2,6.1h-14.2v31.1
	c0,6,2.9,9.5,8.9,9.5h2.9c3.4,0,6.1,2.8,6.1,6.2c0,0,0,0,0,0v4.3c0,3.4-2.8,6.1-6.2,6.1h-4.3c-16.7-0.1-26.4-7.3-26.4-26
	c0.1-20.2,0.1-40.2,0.2-60.4c0-3.4,2.8-6.1,6.2-6.1h6.6c3.4,0,6.1,2.8,6.1,6.2L537.4,348.6z M454.2,357.3
	c6.8-6.3,14.2-10.4,23.7-10.4c20.8,0.1,31.5,17,31.4,36.5l-0.1,32.7c0,3.4-2.8,6.2-6.2,6.2c0,0,0,0,0,0h-6.7c-3.4,0-6.2-2.8-6.2-6.2
	c0,0,0,0,0,0l0.1-32.5c0-10.7-5.8-19.1-17.1-19.1s-18.2,9.3-18.3,19.9l-0.1,31.7c0,3.4-2.8,6.1-6.2,6.1h-6.6c-3.4,0-6.1-2.8-6.1-6.2
	c0.1-19.7,0.1-39.5,0.2-59.2v-2.6c0-3.4,2.8-6.2,6.2-6.1h5.6c3.3,0.1,6,2.8,6.1,6.1L454.2,357.3z M659.5,358.1
	c6.8-6.3,14.2-10.4,23.7-10.4c20.8,0.1,31.5,17.1,31.3,36.5l-0.1,32.8c0,3.4-2.7,6.2-6.2,6.2c0,0,0,0-0.1,0h-6.7
	c-3.4,0-6.2-2.8-6.2-6.2c0,0,0,0,0,0l0.1-32.5c0-10.7-5.8-19.1-17.1-19.1s-18.2,9.3-18.3,19.9l-0.2,31.7c0,3.4-2.8,6.1-6.2,6.1h-6.6
	c-3.4,0-6.1-2.8-6.1-6.2l0.2-61.9c0-3.4,2.8-6.2,6.2-6.2c0,0,0,0,0,0h5.7c3.3,0.1,6,2.8,6.1,6.2L659.5,358.1z M391.4,346.4
	c-22.5-0.1-38.4,16.1-38.5,38.5c-0.1,22.6,15.6,38.6,38.3,38.7c22.7,0.1,38.6-15.8,38.7-38.5C430,362.9,413.8,346.5,391.4,346.4z
	 M578,392.6c1.6,10.4,11.5,14.6,21.2,14.8c4.9,0,9.6-1.1,14.1-3.1c0.7-0.3,1.4-0.6,2.1-1c2.3-1.3,4.4-2.1,6.5,0
	c1.1,1.1,2.2,2.3,3.3,3.3c1.1,1,2.1,2.2,3,3.3c3.1,3.9,0.9,4.8-2.6,7.3c-7.6,5.1-17.5,7.6-26.6,7.6c-24.4-0.1-40.6-15-40.6-39.6
	c0.1-23.3,16.2-38.7,39.5-38.6c23.8,0.1,37.2,14.1,37.6,37.8c0.1,6.5,0.3,8.5-6.3,8.5L578,392.6z M391.4,363.8
	c11.6,0,19.4,10.2,19.4,21.3c0,11.6-7.3,21-19.5,21s-19.4-9.5-19.4-21.1C371.9,373.4,379.3,363.8,391.4,363.8L391.4,363.8z
	 M578.5,376.6l38.3,0.1c-1.4-9.6-9.3-13.4-18.4-13.4C589.2,363.3,581.3,367.6,578.5,376.6z"/>
</svg>
